HIERARCHY
ROOT SpineBase
{
  OFFSET 0.000000 0.000000 0.000000
  CHANNELS 6 Xposition Yposition Zposition Zrotation Xrotation Yrotation
  JOINT SpineMid
  {
    OFFSET -0.000000 27.736446 0.000000
    CHANNELS 3 Zrotation Xrotation Yrotation
    JOINT SpineShoulder
    {
      OFFSET -0.020820 20.564409 -0.632855
      CHANNELS 3 Zrotation Xrotation Yrotation
      JOINT Neck
      {
        OFFSET -0.041433 6.795506 -0.495695
        CHANNELS 3 Zrotation Xrotation Yrotation
        JOINT Head
        {
          OFFSET -2.778023 13.060382 -0.561017
          CHANNELS 3 Zrotation Xrotation Yrotation
          End Site
          {
            OFFSET 0 0 0
          }
        }
      }
      JOINT ShoulderLeft
      {
        OFFSET -13.916241 -3.796473 6.546543
        CHANNELS 3 Zrotation Xrotation Yrotation
        JOINT ElbowLeft
        {
          OFFSET -0.457250 -19.755517 -2.746553
          CHANNELS 3 Zrotation Xrotation Yrotation
          JOINT WristLeft
          {
            OFFSET 2.907805 -21.898420 -1.180064
            CHANNELS 3 Zrotation Xrotation Yrotation
            JOINT HandLeft
            {
              OFFSET -1.820011 -4.348197 -2.703016
              CHANNELS 3 Zrotation Xrotation Yrotation
              JOINT HandTipLeft
              {
                OFFSET -0.617709 -5.140891 -2.769839
                CHANNELS 3 Zrotation Xrotation Yrotation
                End Site
                {
                  OFFSET 0 0 0
                }
              }
              JOINT ThumbLeft
              {
                OFFSET 2.366727 -2.151102 1.838319
                CHANNELS 3 Zrotation Xrotation Yrotation
                End Site
                {
                  OFFSET 0 0 0
                }
              }
            }
          }
        }
      }
      JOINT ShoulderRight
      {
        OFFSET 10.931194 -4.408849 -10.776890
        CHANNELS 3 Zrotation Xrotation Yrotation
        JOINT ElbowRight
        {
          OFFSET 4.528491 -19.444857 -1.864322
          CHANNELS 3 Zrotation Xrotation Yrotation
          JOINT WristRight
          {
            OFFSET -9.632039 -17.530477 -5.155220
            CHANNELS 3 Zrotation Xrotation Yrotation
            JOINT HandRight
            {
              OFFSET -2.249847 -4.684223 1.276624
              CHANNELS 3 Zrotation Xrotation Yrotation
              JOINT HandTipRight
              {
                OFFSET -5.368451 -5.643808 -3.187035
                CHANNELS 3 Zrotation Xrotation Yrotation
                End Site
                {
                  OFFSET 0 0 0
                }
              }
              JOINT ThumbRight
              {
                OFFSET 2.964386 -3.340418 0.915735
                CHANNELS 3 Zrotation Xrotation Yrotation
                End Site
                {
                  OFFSET 0 0 0
                }
              }
            }
          }
        }
      }
    }
  }
  JOINT HipLeft
  {
    OFFSET -5.531902 0.218940 0.220762
    CHANNELS 3 Zrotation Xrotation Yrotation
    JOINT KneeLeft
    {
      OFFSET 5.161679 -29.133451 8.720369
      CHANNELS 3 Zrotation Xrotation Yrotation
      JOINT AnkleLeft
      {
        OFFSET 6.015751 -32.491831 8.712833
        CHANNELS 3 Zrotation Xrotation Yrotation
        JOINT FootLeft
        {
          OFFSET -2.313744 -6.878452 -5.224397
          CHANNELS 3 Zrotation Xrotation Yrotation
          End Site
          {
            OFFSET 0 0 0
          }
        }
      }
    }
  }
  JOINT HipRight
  {
    OFFSET 5.194045 0.984816 -6.529370
    CHANNELS 3 Zrotation Xrotation Yrotation
    JOINT KneeRight
    {
      OFFSET 7.324914 -27.930146 5.548695
      CHANNELS 3 Zrotation Xrotation Yrotation
      JOINT AnkleRight
      {
        OFFSET 6.588563 -31.366254 7.502992
        CHANNELS 3 Zrotation Xrotation Yrotation
        JOINT FootRight
        {
          OFFSET -4.553186 -3.284234 -9.426810
          CHANNELS 3 Zrotation Xrotation Yrotation
          End Site
          {
            OFFSET 0 0 0
          }
        }
      }
    }
  }
}
MOTION
Frames: 8
Frame Time: 0.033333
19.834019 69.326115 352.159348 0.000000 0.000000 32.183331 -0.000000 0.000000 -32.183331 -0.000000 0.000000 0.000000 -0.000000 0.000000 0.000000 0.000000 0.000000 0.000000 -0.000000 0.000000 0.000000 -0.000000 0.000000 0.000000 -0.000000 0.000000 0.000000 -0.000000 0.000000 0.000000 0.000000 0.000000 0.000000 0.000000 0.000000 0.000000 -0.000000 0.000000 0.000000 -0.000000 0.000000 0.000000 -0.000000 0.000000 0.000000 -0.000000 0.000000 0.000000 0.000000 0.000000 0.000000 0.000000 0.000000 0.000000 -0.000000 0.000000 -32.183331 -0.000000 0.000000 0.000000 -0.000000 0.000000 0.000000 0.000000 0.000000 0.000000 -0.000000 0.000000 -32.183331 -0.000000 0.000000 0.000000 -0.000000 0.000000 0.000000 0.000000 0.000000 0.000000
20.078412 69.397930 352.011989 0.347561 0.077134 32.063935 -0.335491 0.119140 -32.063820 -0.000000 0.000000 0.000000 -0.000000 0.000000 0.000000 0.000000 0.000000 0.000000 0.542251 1.179705 -0.108134 -8.178585 8.298455 2.257968 2.361812 -7.919457 0.519207 2.984584 1.747531 -1.585444 0.000000 0.000000 0.000000 0.000000 0.000000 0.000000 1.364717 -1.436372 -0.447570 -8.012001 6.484269 0.084397 -5.831952 2.346429 -5.942639 7.095439 -5.967572 9.383193 0.000000 0.000000 0.000000 0.000000 0.000000 0.000000 -0.335491 0.119140 -32.063820 -0.000000 0.000000 0.000000 -3.100853 10.565060 -0.853653 0.000000 0.000000 0.000000 -0.335491 0.119140 -32.063820 -0.381196 -0.834169 -0.268901 0.377317 0.835930 0.263374 0.000000 0.000000 0.000000
20.273442 69.467549 351.891195 0.621059 0.146906 32.026993 -0.604440 0.204814 -32.026708 -0.000000 0.000000 0.000000 -0.000000 0.000000 0.000000 0.000000 0.000000 0.000000 0.567715 1.904721 -0.132165 -16.037735 17.095894 5.637271 1.908674 -13.882733 0.469521 7.765092 3.419364 -3.095825 0.000000 0.000000 0.000000 0.000000 0.000000 0.000000 2.459838 -2.300991 -0.720195 -15.797373 11.819420 0.961036 -11.090676 5.907379 -11.765571 14.054703 -11.455039 18.798049 0.000000 0.000000 0.000000 0.000000 0.000000 0.000000 -1.695981 0.360957 -32.402361 1.005252 0.453104 0.377067 -5.334205 18.331370 -1.145305 0.000000 0.000000 0.000000 -0.688252 1.370869 -31.914547 0.041885 -2.502117 -0.604705 0.629448 1.563232 0.471355 0.000000 0.000000 0.000000
20.419109 69.534971 351.796967 0.819987 0.209251 32.077285 -0.805927 0.258164 -32.076967 -0.000000 0.000000 0.000000 -0.000000 0.000000 0.000000 0.000000 0.000000 0.000000 0.091057 2.202791 -0.065228 -23.802538 26.141937 10.482660 -2.522015 -15.519153 -1.034211 15.098938 4.531340 -3.549706 0.000000 0.000000 0.000000 0.000000 0.000000 0.000000 3.307042 -2.604092 -0.844687 -23.602130 16.122416 2.380660 -14.767456 9.669163 -16.858214 19.827453 -16.264293 27.269634 0.000000 0.000000 0.000000 0.000000 0.000000 0.000000 -2.258290 0.507497 -32.574812 1.358095 0.571898 0.500772 -6.738024 23.222116 -1.199381 0.000000 0.000000 0.000000 -0.916210 1.890705 -31.917542 0.167200 -3.497314 -0.821151 0.758880 2.180742 0.627190 0.000000 0.000000 0.000000
20.515412 69.600195 351.729304 0.943887 0.264115 32.217472 -0.939364 0.279779 -32.217354 -0.000000 0.000000 0.000000 -0.000000 0.000000 0.000000 0.000000 0.000000 0.000000 -0.889335 2.083018 0.091347 -32.057100 35.321533 17.409991 -9.918676 -9.924817 -3.920264 24.157531 4.902526 -0.423821 0.000000 0.000000 0.000000 0.000000 0.000000 0.000000 3.919087 -2.347684 -0.837348 -31.634214 19.524086 4.172775 -16.563377 12.906812 -21.151181 23.993574 -20.474405 34.209394 0.000000 0.000000 0.000000 0.000000 0.000000 0.000000 -2.627047 0.633387 -32.794688 1.610153 0.616953 0.582114 -7.347179 25.491386 -1.228976 0.000000 0.000000 0.000000 -1.062482 2.300588 -32.017005 0.362802 -4.323225 -0.974644 0.768212 2.688226 0.733585 0.000000 0.000000 0.000000
20.562353 69.663223 351.688206 0.992342 0.311447 32.447885 -1.004514 0.269615 -32.448219 -0.000000 0.000000 0.000000 -0.000000 0.000000 0.000000 0.000000 0.000000 0.000000 -2.389949 1.536875 0.328031 -42.027347 44.503906 27.695672 -14.328287 1.471733 -7.086215 29.403737 5.873443 7.911497 0.000000 0.000000 0.000000 0.000000 0.000000 0.000000 4.299828 -1.523352 -0.704779 -40.081081 22.143186 6.214838 -16.584706 15.343276 -24.823771 26.765544 -24.076821 39.505725 0.000000 0.000000 0.000000 0.000000 0.000000 0.000000 -2.800642 0.738202 -33.062840 1.760833 0.587330 0.621393 -7.185577 25.337866 -1.327717 0.000000 0.000000 0.000000 -1.125196 2.599460 -32.213583 0.627961 -4.980510 -1.062766 0.660107 3.086219 0.792682 0.000000 0.000000 0.000000
20.558841 69.758029 351.645942 0.962125 0.386265 32.879123 -1.017691 0.197940 -32.880608 -0.000000 0.000000 0.000000 -0.000000 0.000000 0.000000 0.000000 0.000000 0.000000 -4.184172 1.073470 0.595057 -60.994740 53.029961 47.217417 -8.799052 11.226900 -11.435230 21.414681 0.123210 17.081975 0.000000 0.000000 0.000000 0.000000 0.000000 0.000000 4.689664 -0.223995 -0.488310 -51.349763 24.475890 9.304619 -12.112709 20.199007 -28.092649 31.633314 -29.553344 45.177688 0.000000 0.000000 0.000000 0.000000 0.000000 0.000000 -2.820250 0.801697 -33.500689 2.763270 0.056871 0.788009 -4.252225 18.120674 -2.713348 0.000000 0.000000 0.000000 -0.816642 3.446430 -32.455999 1.478999 -7.162972 -1.314564 -0.526211 6.364010 -0.411342 0.000000 0.000000 0.000000
20.455582 69.848193 351.675539 0.808458 0.420949 33.302536 -0.906813 0.092093 -33.304777 -0.000000 0.000000 0.000000 -0.000000 0.000000 0.000000 0.000000 0.000000 0.000000 -6.990260 0.086626 0.974825 -85.542679 57.953409 75.963308 8.396951 16.031068 -17.067234 14.685210 -6.047272 23.403831 0.000000 0.000000 0.000000 0.000000 0.000000 0.000000 4.848662 0.964285 -0.278434 -63.750686 26.270015 13.345518 -9.688902 19.317583 -31.554989 35.304489 -27.178304 47.603927 0.000000 0.000000 0.000000 0.000000 0.000000 0.000000 -2.461091 0.831658 -33.845437 2.977208 -0.274987 0.789570 -1.378519 9.213497 -2.880495 0.000000 0.000000 0.000000 -1.118583 2.935701 -33.049673 2.104273 -5.896067 -0.852629 -0.429472 3.622340 0.677635 0.000000 0.000000 0.000000
